<svg width="1269" height="356" viewBox="0 0 1269 356" fill="none" xmlns="http://www.w3.org/2000/svg">
<path d="M552.006 11.4551C560.735 11.0009 572.659 11.3133 581.584 11.3097L636.118 11.2934C663.183 11.2892 702.177 10.0852 727.798 12.9533C742.527 14.4901 756.989 17.9344 770.825 23.1995C796.682 33.1563 820.644 51.7688 831.692 77.8059C858.193 140.246 839.902 211.36 775.014 240.124C782.84 252.297 792.568 265.866 800.828 277.964L852.053 352.994C842.039 353.222 831.382 353.049 821.319 353.057L766.166 353.085C758.736 342.866 750.458 329.738 743.394 319.097C729.1 297.431 714.681 275.845 700.144 254.34C678.916 253.42 651.305 254.259 629.575 254.27C630.479 285.514 629.717 321.437 629.587 353.034L552.062 352.952C551.447 315.007 552.013 275.33 552.013 237.267L552.006 11.4551ZM629.643 189.933C643.981 189.856 658.319 189.852 672.658 189.919C698.75 189.943 726.509 191.478 747.472 173.992C758.928 162.61 765.844 149.887 765.28 133.611C763.278 75.582 714.433 76.0841 672.36 76.115L629.798 76.1503L629.692 144.514C629.692 159.076 630.077 175.5 629.643 189.933Z" fill="black"/>
<path d="M229.839 11.5434C258.165 10.3398 292.637 11.3748 321.545 11.2232C274.072 61.2288 227.029 111.641 180.423 162.455C183.495 166.048 186.358 169.731 189.3 173.426C212.558 202.649 234.676 232.913 258.22 261.895C281.982 292.024 305.012 322.787 328.589 353.063L234.583 352.997C200.147 307.079 163.449 261.705 128.194 216.26C112.519 232.528 97.0387 248.981 81.7555 265.617C81.4159 294.555 81.8311 324.084 81.7698 353.101C57.2724 352.963 27.7071 352.299 3.5467 353.236C2.75419 316.421 3.4579 277.048 3.45879 239.992L3.54294 11.3375L81.3212 11.3231L81.3658 168.961L229.839 11.5434Z" fill="black"/>
<path d="M384.297 11.4919C409.142 10.6873 437.472 11.4178 462.637 11.3178C461.645 49.3194 463.804 350.945 462.127 353.037L383.927 352.994C383.139 327.356 383.808 297.724 383.807 271.807L383.855 113.14L383.841 42.4543C383.84 37.2372 383.504 15.539 384.297 11.4919Z" fill="black"/>
<path d="M1247.67 0H1259.22C1259 7.79683 1256.02 26.2873 1254.87 34.817C1251.84 57.101 1248.92 79.401 1246.12 101.715C1238.87 96.3899 1225.15 83.8674 1217.71 77.6328L1166.48 141.486C1196.18 211.499 1229.2 283.608 1260.47 353.045C1232.91 353.531 1204.86 352.557 1177.24 353.206C1167 328.855 1156.95 304.424 1147.09 279.916L1102.98 280.111C1090.45 290.863 1083.1 295.345 1068 301.781C1053.29 294.607 1046.13 289.864 1033.53 280.038L987.781 279.937C978.511 303.641 967.128 329.278 957.245 353.07L876.799 353.015C881.341 340.975 889.885 323.385 895.32 311.122L933.414 225.271L990.872 95.9999C1003.3 67.7149 1015.87 39.4969 1028.61 11.3466C1054.61 11.4914 1082.63 10.6677 1108.41 11.5073C1118.89 33.2081 1129.38 58.4315 1139.48 80.7872C1123.52 101.851 1106.45 122.34 1090.35 143.246C1087.57 137.682 1084.27 128.878 1081.85 122.941L1067.54 88.3233L1013.45 219.018C1048.41 218.103 1086.15 219.171 1121.52 218.921C1119.32 212.815 1115.41 204.29 1112.82 198.144L1096.76 159.699C1107.25 147.387 1118.27 132.99 1128.5 120.316C1147.51 97.1255 1166.35 73.8047 1185.03 50.3542L1157.32 27.1757C1185.86 17.2766 1218.82 9.90541 1247.67 0Z" fill="black"/>
</svg>
